<?xml version="1.0" standalone="no"?><!DOCTYPE svg PUBLIC "-//W3C//DTD SVG 1.1//EN" "http://www.w3.org/Graphics/SVG/1.1/DTD/svg11.dtd"><svg t="1646038405178" class="icon" viewBox="0 0 1024 1024" version="1.1" xmlns="http://www.w3.org/2000/svg" p-id="5540" xmlns:xlink="http://www.w3.org/1999/xlink" width="200" height="200"><defs><style type="text/css"></style></defs><path d="M934.4 428.032c-20.992-56.32-53.248-107.008-94.208-148.992l3.584-8.192c12.288-28.16 14.336-58.88 6.144-89.088-19.456-72.704-94.72-116.224-167.424-96.768-38.912 10.24-70.656 36.864-88.064 73.216-56.832-6.656-116.736-2.048-177.152 14.336-64 16.896-117.76 43.52-161.792 76.8-32.768-21.504-73.216-28.16-111.104-18.432C70.656 251.392 27.136 326.656 46.592 399.36c7.68 29.184 24.576 54.272 48.64 72.704l7.168 5.632c-17.92 70.656-16.896 144.896 1.024 212.48 38.4 143.872 165.888 226.816 339.968 226.816 24.064 0 49.664-1.536 75.264-5.12 19.968-2.56 33.792-20.48 31.232-40.448s-20.48-33.792-40.448-31.232c-83.968 10.752-159.744 1.024-219.136-27.648-60.416-29.184-99.84-76.8-117.248-141.312-22.528-83.968-12.288-176.128 28.672-252.416C234.496 358.912 301.056 279.04 435.2 243.2c220.16-58.88 377.856 67.584 431.104 209.92 7.168 18.944 27.648 28.16 46.592 21.504 18.944-7.168 28.16-27.648 21.504-46.592z" fill="#1A223E" p-id="5541"></path><path d="M245.248 574.976c7.68 20.48 19.456 33.792 34.816 39.936 15.36 6.144 33.28 4.096 52.736-5.632 55.808-27.648 92.16-116.224 71.68-175.104-7.168-19.968-17.92-33.792-33.28-39.936-5.12-2.048-11.776-4.096-20.48-4.096s-18.432 2.048-30.208 7.168c-59.392 25.6-97.792 117.248-75.264 177.664zM566.272 342.016c-9.728 13.312-12.288 30.208-8.704 51.2 11.264 58.88 82.432 116.224 143.36 116.224h6.144c22.016-1.536 37.888-8.704 48.128-21.504s13.824-30.208 10.24-51.712c-10.752-64-89.6-123.904-153.6-116.736-25.6 2.56-38.912 13.312-45.568 22.528zM558.08 508.416c-1.024-1.024-2.048-1.024-2.56-1.536-1.536-0.512-3.072-1.024-5.12-1.024h-3.584c-4.096 0-9.728 2.048-10.752 2.56s-2.56 1.024-5.12 2.048c-5.632 2.56-16.384 6.656-21.504 8.192-5.12 1.536-16.384 3.072-22.528 3.584-2.56 0.512-4.608 0.512-5.632 1.024-1.024 0-6.656 1.536-10.24 3.072-1.024 0.512-2.048 1.024-3.072 2.048l-0.512 0.512c-1.024 1.024-2.56 2.048-3.072 3.072-0.512 0.512-1.024 1.024-1.536 2.048l-0.512 0.512-0.512 0.512c-3.584 6.144-5.12 13.312-3.072 19.968 1.536 5.12 4.096 9.216 8.192 12.288l1.536 1.536c0.512 0 0.512 0.512 1.024 0.512l1.024 1.024h0.512c11.264 6.656 28.672 12.288 43.52 12.288 4.096 0 8.192-0.512 11.776-1.536 16.896-4.608 35.328-23.552 43.008-38.4 0-0.512 0.512-1.024 0.512-1.536l0.512-1.536v-0.512c1.536-4.608 2.048-9.728 0.512-14.848-1.536-7.168-6.656-12.8-12.8-15.872z" fill="#1A223E" p-id="5542"></path><path d="M968.192 608.256c32.768-67.584 8.192-92.672-30.208-102.912s-83.456 16.896-112.128 89.6c-0.512 2.048-1.536 3.584-2.048 5.632-3.072 7.68-11.776 11.776-19.456 9.216-19.968-7.168-40.96-12.288-59.904-17.92-91.648-24.576-138.24 39.936-161.792 128-23.552 88.576-15.872 167.424 76.288 192 91.648 24.576 214.016 57.344 256.512-102.4 2.56-9.728 4.608-18.432 6.144-27.136v-0.512c0-1.024 0.512-2.048 0.512-3.072 2.56-20.48 16.896-110.592 46.08-170.496z" fill="#D61C2A" p-id="5543"></path></svg>