<?xml version="1.0" standalone="no"?><!DOCTYPE svg PUBLIC "-//W3C//DTD SVG 1.1//EN" "http://www.w3.org/Graphics/SVG/1.1/DTD/svg11.dtd"><svg t="1639843879941" class="icon" viewBox="0 0 1380 1024" version="1.1" xmlns="http://www.w3.org/2000/svg" p-id="1872" xmlns:xlink="http://www.w3.org/1999/xlink" width="269.53125" height="200"><defs><style type="text/css"></style></defs><path d="M356.173913 272.740174C376.653913 119.006609 517.209043 0 687.504696 0c169.494261 0 309.51513 117.849043 331.063652 270.558609-47.638261 88.420174-147.678609 152.175304-331.063652 152.175304-181.871304 0-282.579478-62.686609-331.330783-149.993739z" fill="#FFDB60" p-id="1873"></path><path d="M690.621217 1023.955478l-6.856347 0.044522c-9.037913 0-18.387478-0.445217-28.048696-1.335652-78.402783-4.541217-204.933565-21.815652-312.631652-67.717565-319.666087-136.281043-469.25913-563.2-213.125565-635.993044 264.681739-45.145043 213.793391 133.921391 560.66226 136.236522 346.290087-2.31513 295.535304-181.381565 559.771826-136.236522 255.821913 72.793043 106.406957 499.712-212.813913 635.993044-120.386783 51.422609-264.414609 66.871652-338.098087 68.830608a135.346087 135.346087 0 0 1-2.048 0.222609l-6.811826-0.044522z" fill="#FFDB60" p-id="1874"></path></svg>